<?xml version="1.0" standalone="no"?>
<!DOCTYPE svg PUBLIC "-//W3C//DTD SVG 20010904//EN"
 "http://www.w3.org/TR/2001/REC-SVG-20010904/DTD/svg10.dtd">
<svg version="1.0" xmlns="http://www.w3.org/2000/svg"
 width="500.000000pt" height="500.000000pt" viewBox="0 0 500.000000 500.000000"
 preserveAspectRatio="xMidYMid meet">

<g transform="translate(0.000000,500.000000) scale(0.100000,-0.100000)"
fill="#000000" stroke="none">
<path d="M1280 3313 c22 -8 80 -65 80 -78 0 -18 57 -55 85 -55 31 0 31 13 2
65 -27 49 -76 75 -137 74 -25 0 -38 -3 -30 -6z"/>
<path d="M1170 3281 l-35 -7 30 -8 c17 -4 35 -9 41 -11 16 -5 -2 -97 -22 -111
-8 -7 -10 -14 -5 -15 15 -6 60 -169 47 -169 -6 0 -3 -5 6 -10 24 -15 60 -77
53 -92 -3 -7 12 7 34 32 44 49 49 48 27 -4 -18 -44 -52 -66 -101 -66 -49 0
-68 11 -64 36 4 18 -33 74 -77 118 -11 12 -26 40 -31 64 -13 50 -7 55 53 50
39 -3 38 -1 57 -80 6 -22 3 -27 -15 -31 -20 -4 -19 -4 5 -6 31 -1 33 10 15 88
l-11 50 -56 3 c-53 3 -56 4 -53 27 2 14 15 49 28 79 16 36 19 50 9 42 -8 -7
-25 -10 -40 -6 -31 8 -175 -9 -265 -31 -141 -34 -278 -125 -365 -243 -56 -76
-96 -197 -102 -305 -15 -283 159 -513 443 -585 149 -38 372 -21 469 36 23 13
57 24 76 25 28 1 23 3 -25 14 -39 8 -66 21 -83 39 -17 19 -30 25 -47 20 -19
-4 -36 6 -87 57 -82 80 -89 85 -122 93 -15 4 -26 10 -23 15 3 4 -6 6 -20 3
-26 -5 -64 21 -64 43 0 7 -8 19 -17 28 -15 13 -32 14 -101 8 -81 -7 -84 -6
-192 37 -61 24 -110 48 -110 52 0 4 51 -11 113 -35 108 -42 117 -43 189 -38
68 5 79 3 107 -16 17 -12 31 -29 31 -37 0 -16 16 -19 25 -3 4 5 0 18 -9 28 -9
10 -14 25 -10 35 3 9 2 16 -4 16 -5 0 -13 -7 -16 -16 -9 -23 -26 -7 -26 25 0
15 -5 32 -11 38 -18 18 -3 40 42 63 34 18 46 20 66 11 13 -6 32 -11 42 -11 27
0 73 -55 81 -97 l8 -38 1 40 2 40 18 -22 c11 -13 30 -23 42 -23 13 0 32 -12
44 -26 14 -17 35 -29 61 -33 34 -5 39 -10 42 -34 2 -17 -10 -57 -31 -101 l-34
-72 31 -35 c25 -29 40 -37 78 -41 26 -3 46 -2 43 1 -2 4 13 12 35 17 43 12 47
-4 7 -25 -22 -11 -22 -11 3 -8 15 1 33 15 48 37 13 19 34 41 47 49 29 18 45
52 45 96 0 22 9 43 25 61 14 15 25 35 25 46 0 28 29 80 41 72 6 -3 9 11 8 40
-2 25 0 49 4 52 3 4 0 19 -8 34 -13 25 -12 29 5 45 28 25 25 59 -9 98 -16 18
-37 51 -46 73 -9 23 -28 47 -45 57 -25 15 -29 24 -32 69 -2 33 -8 53 -17 56
-9 3 -11 0 -6 -7 15 -25 -4 -58 -45 -74 -46 -18 -55 -6 -10 13 41 17 56 45 33
59 -17 9 -16 11 6 35 15 16 22 32 18 46 -3 11 -1 23 4 26 5 3 9 16 9 30 0 23
-1 24 -16 10 -8 -9 -19 -16 -23 -16 -4 0 -7 -10 -7 -21 1 -12 -5 -24 -11 -26
-8 -3 -13 4 -13 16 0 12 -6 21 -13 21 -7 0 -31 18 -52 41 -71 72 -124 94 -195
80z m-200 -88 c0 -12 -71 -132 -83 -140 -6 -4 -4 6 7 22 71 108 72 131 2 53
-29 -31 -71 -99 -107 -172 -63 -128 -70 -149 -41 -123 10 10 21 15 24 11 10
-9 52 59 53 85 0 35 26 37 64 6 35 -30 42 -60 12 -52 -15 3 -18 -1 -17 -27 1
-37 -18 -43 -21 -6 0 14 -2 30 -3 35 -1 6 -2 13 -1 18 0 4 -2 7 -7 7 -6 -1
-43 -49 -126 -164 -29 -41 -29 -41 16 7 48 50 66 60 48 26 -10 -19 -10 -20 9
-10 37 20 41 11 9 -19 l-33 -29 49 14 c76 23 88 17 22 -10 -85 -34 -89 -46 -9
-23 53 15 89 18 166 15 54 -2 102 -8 108 -14 6 -6 -16 -6 -63 -1 -49 6 -93 5
-134 -2 -82 -16 -102 -29 -44 -31 49 -1 46 -4 -15 -14 -33 -6 -37 -9 -20 -15
16 -7 14 -9 -13 -9 -20 -1 -31 -5 -27 -11 4 -6 8 -28 9 -50 l3 -38 -83 -7
c-87 -8 -137 3 -214 45 -30 17 -32 19 -12 20 12 0 51 5 85 12 51 10 66 17 75
36 10 23 10 23 -6 10 -26 -23 -122 -44 -174 -40 -13 2 -18 11 -18 32 0 27 3
30 31 30 17 0 28 4 24 10 -3 6 2 10 12 11 10 0 -2 9 -27 20 -45 19 -45 20 -9
14 50 -7 48 19 -4 40 -22 9 -37 18 -34 21 3 3 37 -8 76 -25 39 -17 71 -29 71
-27 0 2 -21 20 -47 41 -44 35 -41 40 12 19 20 -7 20 -7 1 14 -11 12 -15 22 -9
22 5 0 18 -9 28 -20 27 -30 29 -17 6 29 -29 55 -26 63 6 18 28 -40 42 -43 23
-5 l-11 23 20 -24 c27 -30 27 -29 -10 107 -17 62 -28 116 -26 119 6 6 34 -77
63 -187 17 -66 22 -77 23 -50 2 59 21 73 21 15 l1 -50 23 55 c57 137 136 263
196 314 31 25 50 33 50 19z m415 -68 c0 -39 -31 -48 -41 -11 -7 30 2 48 24 44
11 -2 17 -13 17 -33z m31 -32 c-4 -16 -9 -36 -12 -46 -4 -14 -1 -17 12 -15 33
6 28 -30 -7 -51 -18 -11 -35 -19 -36 -17 -3 3 14 78 33 144 7 25 16 11 10 -15z
m-685 -40 c-20 -35 -21 -36 -15 -8 9 40 26 73 31 58 2 -6 -5 -29 -16 -50z
m194 -21 c-21 -20 -32 -28 -25 -17 26 37 53 65 59 60 3 -3 -12 -22 -34 -43z
m177 -75 c-8 -9 -3 -18 19 -32 37 -25 37 -35 -1 -35 -17 0 -33 7 -39 17 -5 10
-23 18 -41 19 -30 2 -30 1 -15 -20 26 -35 29 -48 16 -67 -7 -12 -7 -19 -1 -19
5 0 10 5 10 11 0 5 4 8 9 5 4 -3 6 5 4 18 -7 34 15 43 23 10 8 -31 -17 -57
-51 -52 -16 2 -20 10 -19 36 1 17 -2 32 -6 32 -5 0 -15 3 -24 6 -12 4 -16 0
-16 -15 0 -14 -6 -21 -20 -21 -21 0 -27 24 -11 49 6 10 19 12 42 7 31 -6 32
-5 14 8 -11 9 -37 16 -57 16 -21 0 -38 5 -38 11 0 7 14 9 43 5 69 -10 88 -9
105 8 20 20 70 23 54 3z m445 -52 c2 -5 -16 -11 -40 -12 -24 -1 -68 -13 -97
-27 -62 -30 -67 -31 -50 -11 7 8 17 15 22 15 6 0 22 9 37 19 39 28 121 38 128
16z m-403 -66 c-16 -18 -16 -19 4 -19 29 0 28 -14 -4 -30 -20 -11 -27 -12 -33
-1 -15 23 -6 56 17 66 12 5 22 14 23 20 0 5 3 4 6 -3 3 -7 -3 -22 -13 -33z
m404 -34 c17 -14 46 -32 66 -40 20 -9 36 -20 36 -25 0 -17 -52 -11 -73 8 -15
13 -35 17 -86 15 -36 -1 -77 -6 -91 -11 -20 -8 -7 -11 66 -17 l91 -7 11 -34
c11 -36 6 -37 -31 -6 -10 9 -42 17 -75 18 -47 3 -62 0 -85 -19 l-28 -22 43 3
c37 3 47 -1 73 -28 29 -30 29 -32 11 -45 -13 -10 -17 -21 -12 -39 5 -22 3 -26
-14 -26 -27 0 -25 -17 3 -27 18 -6 13 -9 -28 -14 -27 -4 -59 -10 -70 -13 -21
-7 -54 8 -43 20 4 3 22 10 40 14 31 8 32 8 6 9 -33 1 -35 14 -8 41 11 11 20
22 20 25 0 3 -9 1 -20 -5 -11 -6 -20 -16 -20 -23 0 -7 -9 -23 -21 -35 -11 -12
-17 -27 -13 -33 4 -7 -2 -7 -16 1 -20 11 -22 10 -16 -5 5 -14 4 -16 -8 -6 -7
6 -20 9 -29 5 -8 -3 -27 2 -41 11 -19 13 -26 28 -32 71 -8 68 0 106 22 97 15
-5 15 -3 0 25 -19 37 -20 81 -2 105 13 17 32 24 22 8 -11 -17 25 -21 47 -6 31
22 50 20 37 -4 -5 -11 -10 -28 -10 -38 0 -15 2 -16 11 -3 8 11 9 8 4 -13 -6
-32 -3 -31 52 10 32 25 50 53 33 53 -6 0 -19 -9 -29 -19 -17 -17 -20 -18 -26
-3 -9 24 16 41 53 35 26 -4 31 -9 27 -24 -6 -17 -3 -18 20 -9 14 5 44 10 66
10 53 0 50 20 -3 21 -24 1 -54 5 -68 9 -18 6 -7 8 42 9 57 1 71 -2 96 -24z
m-588 5 c0 -5 9 -10 20 -10 31 0 24 -20 -7 -21 -16 0 -22 -3 -15 -6 16 -6 16
-23 -1 -23 -19 0 -60 47 -52 59 8 14 55 14 55 1z m410 -363 l35 -2 -1 -48 c0
-42 1 -46 11 -26 l12 22 18 -24 17 -24 -6 35 -6 34 40 -41 c22 -23 40 -48 39
-55 0 -7 -7 -3 -16 10 -18 25 -33 29 -33 7 0 -20 -14 -19 -31 1 -12 14 -14 14
-25 -1 -16 -21 -34 -11 -34 19 0 19 -4 21 -35 18 -25 -3 -42 1 -55 13 -28 26
-25 39 5 19 15 -10 32 -13 42 -9 15 6 11 10 -17 20 -41 14 -58 53 -19 40 13
-4 40 -8 59 -8z m-95 -217 c17 -7 33 -7 45 0 19 10 47 -10 33 -23 -14 -14 -79
-6 -103 13 -27 21 -16 26 25 10z"/>
<path d="M679 2683 c-13 -16 -12 -17 4 -4 9 7 17 15 17 17 0 8 -8 3 -21 -13z"/>
<path d="M1333 2708 c-12 -6 -27 -26 -33 -44 -6 -18 -18 -38 -26 -45 -11 -9
-12 -14 -4 -19 9 -5 8 -13 -1 -28 -12 -19 -11 -24 4 -39 15 -15 17 -15 17 -1
0 8 10 28 22 44 12 16 15 23 6 16 -23 -19 -27 -4 -11 50 10 33 22 52 41 63 31
16 18 19 -15 3z"/>
<path d="M1372 2620 c0 -14 2 -19 5 -12 2 6 2 18 0 25 -3 6 -5 1 -5 -13z"/>
<path d="M1432 2633 c-7 -3 -17 -13 -22 -23 -9 -17 -7 -17 20 -7 29 11 37 22
23 30 -5 2 -14 2 -21 0z"/>
<path d="M1380 2416 c0 -9 5 -16 10 -16 6 0 10 4 10 9 0 6 -4 13 -10 16 -5 3
-10 -1 -10 -9z"/>
<path d="M1830 2881 l0 -41 128 -1 c230 -1 232 -3 232 -306 l0 -213 40 0 41 0
-3 249 c-3 234 -4 251 -24 278 -40 55 -83 67 -256 71 l-158 4 0 -41z"/>
<path d="M2620 2882 l0 -40 70 -4 c38 -2 75 -9 82 -16 10 -9 14 -69 16 -217
l3 -205 -100 0 -101 0 0 -40 0 -40 140 0 140 0 0 254 c0 140 -4 266 -10 280
-16 43 -54 60 -151 64 l-89 4 0 -40z"/>
<path d="M3205 2893 c10 -16 85 -126 167 -245 82 -120 151 -225 154 -233 5
-13 -17 -15 -170 -15 l-176 0 0 -40 0 -40 230 0 230 0 0 29 c0 18 -20 61 -52
111 l-51 81 38 31 c20 17 48 54 61 82 20 44 24 67 24 159 l0 107 -39 0 -38 0
-5 -107 c-2 -60 -10 -119 -17 -133 -17 -31 -52 -70 -63 -70 -5 0 -54 70 -109
155 l-101 155 -50 0 -50 0 17 -27z"/>
<path d="M4000 2882 l0 -40 168 -4 c178 -3 200 -9 221 -55 7 -15 11 -109 11
-243 l0 -220 45 0 45 0 0 233 c0 273 -7 299 -82 338 -39 21 -60 23 -225 27
l-183 4 0 -40z"/>
<path d="M4007 2673 c-4 -3 -7 -84 -7 -180 l0 -173 45 0 45 0 0 180 0 180 -38
0 c-21 0 -42 -3 -45 -7z"/>
<path d="M846 2584 c-24 -23 -19 -27 9 -8 14 9 25 18 25 20 0 10 -20 3 -34
-12z"/>
<path d="M978 2488 c-2 -13 -9 -22 -16 -20 -8 1 -12 -12 -12 -39 0 -28 4 -39
13 -36 6 2 11 13 9 25 -2 11 4 34 12 51 9 17 12 32 7 36 -5 3 -11 -5 -13 -17z"/>
<path d="M1610 2456 c0 -14 -11 -38 -25 -54 -14 -17 -25 -35 -25 -42 0 -7 14
4 30 25 18 22 30 50 30 66 0 16 -2 29 -5 29 -3 0 -5 -11 -5 -24z"/>
<path d="M1040 2442 c0 -18 5 -32 10 -32 6 0 8 11 4 28 -10 39 -14 40 -14 4z"/>
<path d="M989 2434 c-11 -13 -11 -18 -1 -21 6 -3 12 -14 12 -26 0 -14 11 -28
29 -38 27 -16 28 -16 24 0 -2 10 3 23 11 30 27 23 17 34 -10 12 -37 -29 -46
-26 -43 13 4 42 -4 52 -22 30z"/>
<path d="M1150 2428 c0 -13 5 -30 10 -38 7 -11 10 -5 10 23 0 20 -4 37 -10 37
-5 0 -10 -10 -10 -22z"/>
<path d="M1087 2383 c-9 -19 -14 -39 -11 -45 4 -6 1 -13 -5 -17 -8 -5 5 -21
36 -45 45 -35 48 -36 65 -19 10 10 20 33 24 51 6 28 4 32 -15 32 -12 0 -21 -6
-21 -15 0 -24 -20 -17 -20 8 -1 12 -9 36 -18 54 l-17 31 -18 -35z"/>
<path d="M888 2403 c7 -3 16 -2 19 1 4 3 -2 6 -13 5 -11 0 -14 -3 -6 -6z"/>
<path d="M1551 2303 c-1 -24 -10 -39 -40 -63 -21 -17 -44 -42 -51 -54 -15 -29
-50 -46 -81 -40 l-24 5 23 -10 c32 -15 67 2 94 43 12 19 35 42 50 51 29 17 43
50 35 82 -3 10 -5 4 -6 -14z"/>
<path d="M2650 2210 c0 -19 7 -20 90 -20 83 0 90 1 90 20 0 19 -7 20 -90 20
-83 0 -90 -1 -90 -20z"/>
<path d="M3320 2210 c0 -16 7 -20 35 -20 34 0 35 -1 35 -40 0 -33 3 -40 20
-40 17 0 20 7 20 40 0 39 1 40 35 40 28 0 35 4 35 20 0 19 -7 20 -90 20 -83 0
-90 -1 -90 -20z"/>
<path d="M4160 2210 c0 -19 7 -20 90 -20 83 0 90 1 90 20 0 19 -7 20 -90 20
-83 0 -90 -1 -90 -20z"/>
<path d="M920 1885 c0 -22 4 -25 33 -25 19 0 36 -2 39 -6 3 -3 -3 -28 -14 -56
-18 -48 -18 -72 1 -52 10 9 51 113 51 127 0 4 -20 7 -45 7 -33 0 -45 4 -45 15
0 8 -4 15 -10 15 -5 0 -10 -11 -10 -25z"/>
<path d="M420 1871 c0 -6 13 -11 29 -11 54 0 61 -8 61 -66 0 -41 4 -54 15 -54
11 0 15 12 15 53 0 28 -4 58 -9 66 -11 17 -111 28 -111 12z"/>
<path d="M630 1833 c0 -35 3 -44 10 -33 13 20 13 80 0 80 -5 0 -10 -21 -10
-47z"/>
<path d="M764 1831 c20 -27 36 -51 36 -55 0 -3 -16 -6 -35 -6 -24 0 -35 -5
-35 -15 0 -12 13 -15 55 -15 56 0 69 12 44 37 -8 8 -7 17 5 34 20 30 21 69 1
69 -10 0 -15 -10 -15 -29 0 -44 -15 -46 -40 -6 -12 19 -28 35 -37 35 -10 0 -4
-15 21 -49z"/>
<path d="M1110 1826 c0 -45 4 -58 22 -70 50 -36 108 -4 108 58 0 40 -24 68
-53 64 -28 -4 -33 -25 -5 -24 19 1 24 -5 26 -32 4 -38 -12 -62 -39 -62 -24 0
-39 30 -39 79 0 23 -4 41 -10 41 -5 0 -10 -24 -10 -54z"/>
<path d="M1320 1871 c0 -5 7 -11 15 -15 10 -3 15 -19 15 -46 0 -33 -3 -40 -20
-40 -11 0 -20 -7 -20 -15 0 -10 11 -15 35 -15 l35 0 0 60 c0 48 -4 61 -19 70
-24 12 -41 13 -41 1z"/>
<path d="M1467 1834 c7 -63 18 -82 50 -90 41 -11 77 15 81 56 4 53 -16 72 -80
78 l-56 4 5 -48z m102 10 c9 -9 4 -65 -7 -76 -6 -6 -22 -8 -36 -4 -22 5 -26
12 -26 45 0 21 3 41 7 45 7 7 53 -1 62 -10z"/>
<path d="M1680 1834 c0 -40 2 -45 15 -34 8 7 15 28 15 46 0 24 -5 34 -15 34
-11 0 -15 -12 -15 -46z"/>
<path d="M1804 1862 c15 -17 15 -22 1 -48 -19 -38 -19 -74 0 -74 10 0 15 10
15 33 0 50 10 51 42 7 17 -22 34 -40 39 -40 13 0 11 14 -3 28 -10 10 -10 17 0
32 14 24 16 80 2 80 -5 0 -10 -10 -10 -22 0 -24 -16 -56 -23 -48 -2 3 -14 20
-26 38 -12 17 -30 32 -38 32 -14 0 -14 -2 1 -18z"/>
<path d="M2000 1810 c0 -56 3 -70 15 -70 12 0 15 14 15 70 0 56 -3 70 -15 70
-12 0 -15 -14 -15 -70z"/>
<path d="M2210 1870 c0 -5 5 -10 10 -10 14 0 13 -83 -2 -98 -17 -17 -3 -25 21
-12 17 9 21 20 21 60 0 52 7 58 41 40 15 -8 19 -22 19 -60 0 -28 5 -50 10 -50
6 0 10 27 10 60 0 56 -2 61 -26 70 -33 13 -104 13 -104 0z"/>
<path d="M2420 1870 c0 -5 9 -10 21 -10 77 0 89 -82 14 -96 -19 -3 -35 -11
-35 -16 0 -16 83 0 98 19 13 19 16 61 4 80 -16 25 -102 44 -102 23z"/>
<path d="M2600 1871 c0 -5 7 -11 15 -15 22 -8 20 -75 -2 -92 -22 -16 -12 -28
16 -19 18 5 21 15 21 55 0 53 9 65 40 55 17 -5 20 -15 20 -61 0 -41 4 -54 15
-54 11 0 15 13 15 54 0 45 -4 58 -22 70 -24 17 -118 22 -118 7z"/>
<path d="M2824 1810 c-1 -81 20 -99 29 -24 6 56 28 84 51 64 24 -19 21 -81 -4
-87 -32 -9 -23 -23 15 -23 l35 0 0 48 c0 74 -41 115 -79 80 -11 -10 -14 -10
-18 0 -3 6 -10 12 -16 12 -8 0 -12 -24 -13 -70z"/>
<path d="M3030 1870 c0 -5 10 -10 23 -10 37 0 49 -14 45 -56 -3 -36 -6 -39
-35 -42 -55 -5 -37 -22 23 -22 47 0 55 3 50 16 -3 9 -6 31 -6 50 0 43 -30 74
-70 74 -16 0 -30 -4 -30 -10z"/>
<path d="M3320 1811 l0 -71 60 0 60 0 0 53 c0 28 -4 58 -9 66 -5 7 -32 16 -60
19 l-51 5 0 -72z m78 40 c8 -5 12 -23 10 -47 -3 -36 -5 -39 -33 -39 -27 0 -30
4 -33 33 -2 19 -1 40 2 48 6 16 34 18 54 5z"/>
<path d="M3530 1834 c0 -27 4 -43 10 -39 6 3 10 24 10 46 0 21 -4 39 -10 39
-5 0 -10 -21 -10 -46z"/>
<path d="M3640 1830 c0 -78 52 -114 108 -74 17 11 22 25 22 58 0 23 -5 47 -12
54 -15 15 -58 16 -58 2 0 -5 7 -10 15 -10 9 0 21 -11 27 -25 22 -49 -25 -98
-60 -63 -7 7 -12 34 -12 60 0 36 -4 48 -15 48 -11 0 -15 -12 -15 -50z"/>
<path d="M3850 1870 c0 -5 23 -10 50 -10 28 0 50 -2 50 -5 0 -2 -9 -27 -20
-55 -24 -60 -24 -60 -7 -60 10 0 57 108 57 133 0 4 -29 7 -65 7 -37 0 -65 -4
-65 -10z"/>
<path d="M4060 1834 c0 -27 4 -43 10 -39 6 3 10 24 10 46 0 21 -4 39 -10 39
-5 0 -10 -21 -10 -46z"/>
<path d="M4170 1810 c0 -56 3 -70 15 -70 12 0 15 14 15 70 0 56 -3 70 -15 70
-12 0 -15 -14 -15 -70z"/>
<path d="M4270 1870 c0 -5 15 -10 33 -10 45 0 57 -15 57 -72 0 -26 5 -48 10
-48 6 0 10 27 10 60 0 48 -4 61 -19 70 -25 13 -91 13 -91 0z"/>
<path d="M4464 1849 c7 -37 38 -69 45 -47 2 6 -1 14 -7 16 -14 4 -16 28 -3 36
5 4 21 2 35 -4 20 -7 26 -16 26 -40 0 -33 -26 -50 -76 -50 -13 0 -24 -5 -24
-11 0 -8 16 -10 47 -6 112 12 110 122 -1 134 l-49 6 7 -34z"/>
<path d="M420 1780 c0 -29 4 -40 15 -40 11 0 15 11 15 40 0 29 -4 40 -15 40
-11 0 -15 -11 -15 -40z"/>
<path d="M3850 1755 c0 -51 3 -65 15 -65 12 0 15 14 15 65 0 51 -3 65 -15 65
-12 0 -15 -14 -15 -65z"/>
</g>
</svg>
