<?xml version="1.0" standalone="no"?>
<!DOCTYPE svg PUBLIC "-//W3C//DTD SVG 20010904//EN"
 "http://www.w3.org/TR/2001/REC-SVG-20010904/DTD/svg10.dtd">
<svg version="1.0" xmlns="http://www.w3.org/2000/svg"
 width="500.000000pt" height="500.000000pt" viewBox="0 0 500.000000 500.000000"
 preserveAspectRatio="xMidYMid meet">

<g transform="translate(0.000000,500.000000) scale(0.100000,-0.100000)"
fill="#000000" stroke="none">
<path d="M2558 4768 c133 -238 214 -389 210 -393 -4 -5 -168 8 -250 20 -38 5
-38 5 -38 -30 0 -30 3 -35 23 -35 12 0 87 -7 167 -15 80 -8 152 -15 161 -15
32 0 29 41 -7 112 l-35 70 45 39 c51 45 71 94 81 202 l7 67 -35 0 -36 0 -6
-57 c-10 -93 -25 -139 -56 -169 -16 -15 -30 -26 -32 -23 -2 2 -35 63 -72 134
-38 72 -73 133 -79 137 -6 4 -26 8 -44 8 l-34 0 30 -52z"/>
<path d="M2085 4773 c-11 -2 -30 -6 -42 -9 -18 -3 -23 -11 -23 -34 l0 -31 64
7 c57 6 65 4 75 -13 8 -15 61 -298 61 -326 0 -2 -36 -10 -81 -17 l-81 -13 6
-30 c3 -17 7 -32 9 -33 3 -3 219 35 224 39 5 6 -55 363 -68 404 -18 55 -65 73
-144 56z"/>
<path d="M3250 4681 c-5 -11 -10 -24 -10 -29 0 -5 50 -31 111 -57 138 -60 159
-76 159 -120 0 -20 -28 -101 -67 -191 -63 -149 -65 -158 -48 -170 39 -29 48
-18 120 154 86 204 90 245 35 296 -27 25 -260 136 -285 136 -2 0 -9 -9 -15
-19z"/>
<path d="M1600 4623 c-44 -7 -235 -98 -238 -114 -1 -8 3 -22 10 -31 12 -15 22
-12 112 28 117 52 155 56 188 16 12 -15 52 -94 87 -175 66 -151 76 -162 115
-134 16 12 12 25 -59 182 -74 165 -94 199 -125 215 -23 11 -62 17 -90 13z"/>
<path d="M3126 4387 c-31 -72 -52 -134 -48 -138 4 -4 19 -10 33 -14 25 -6 27
-2 77 117 29 68 52 128 52 135 0 6 -13 16 -29 21 l-29 10 -56 -131z"/>
<path d="M2580 4226 c0 -9 12 -16 28 -18 23 -3 27 -7 24 -32 -4 -28 13 -50 30
-40 4 3 8 18 8 35 0 26 3 29 30 29 19 0 30 5 30 14 0 17 -31 26 -97 26 -39 0
-53 -4 -53 -14z"/>
<path d="M2184 4218 c-42 -7 -51 -12 -47 -27 4 -16 10 -16 71 -7 50 9 68 16
70 29 4 19 -12 20 -94 5z"/>
<path d="M3154 4119 c-9 -15 3 -24 68 -52 48 -21 57 -23 62 -10 8 20 8 20 -6
26 -105 42 -118 45 -124 36z"/>
<path d="M3114 3976 c-17 -8 -46 -32 -64 -55 -32 -40 -35 -41 -92 -41 -77 0
-147 -18 -161 -41 -11 -17 -26 -19 -142 -19 -356 0 -696 -67 -940 -185 -189
-92 -301 -170 -430 -299 -196 -196 -303 -365 -379 -597 -55 -169 -68 -240 -73
-419 -9 -313 59 -570 219 -827 65 -105 231 -281 347 -369 169 -127 427 -234
703 -291 120 -25 153 -27 343 -27 181 0 225 3 315 22 152 33 333 96 424 147
72 41 85 45 146 45 40 0 94 -8 132 -20 76 -24 107 -25 156 -5 49 21 79 51 101
100 24 54 66 102 110 125 49 25 96 77 109 120 6 19 12 72 15 116 6 98 13 114
82 179 52 50 52 50 58 125 3 41 17 112 32 157 20 65 25 100 24 170 -1 48 2
107 6 131 6 36 4 47 -12 65 -11 12 -23 30 -26 40 -4 9 -14 17 -24 17 -11 0 5
20 45 58 33 33 64 72 68 87 10 42 -34 121 -107 190 -32 31 -59 64 -59 74 0 28
-31 113 -57 154 -23 36 -69 74 -133 110 l-32 17 4 116 c3 116 3 117 -23 136
-19 14 -44 21 -88 22 -33 0 -61 4 -61 9 0 4 4 7 9 7 5 0 32 21 61 47 l52 47
-7 61 c-5 54 -4 63 14 79 16 15 21 31 21 71 0 28 -3 55 -7 58 -3 4 -21 -2 -39
-13 l-32 -21 -13 38 c-39 121 -110 217 -193 261 -45 24 -63 27 -161 29 -60 1
-132 5 -160 8 -33 3 -61 0 -81 -9z m153 -37 c71 -34 125 -90 167 -172 18 -37
35 -57 51 -61 12 -3 37 -22 54 -41 26 -30 37 -35 73 -35 50 -1 36 -14 -30 -28
l-41 -10 -61 68 c-105 119 -259 220 -358 236 -23 4 -45 10 -47 14 -3 5 11 22
31 40 43 37 64 35 161 -11z m-266 -109 c29 -6 57 -14 62 -19 13 -13 -17 -193
-40 -238 -15 -32 -24 -39 -58 -43 l-40 -6 36 -16 c20 -9 39 -20 43 -26 5 -9
98 -338 113 -401 6 -23 5 -23 -58 -18 l-64 6 61 -13 c33 -7 65 -16 71 -19 6
-4 37 -46 69 -94 55 -83 57 -87 47 -125 -6 -21 -7 -38 -3 -38 10 0 97 100 146
170 28 38 40 49 42 37 8 -40 -59 -176 -110 -224 -51 -48 -146 -64 -249 -42
-64 14 -89 38 -89 84 0 34 1 35 28 29 23 -6 19 2 -39 62 -59 62 -167 211 -157
218 1 2 53 0 113 -4 116 -8 129 -4 121 35 -5 25 -54 252 -61 283 -5 22 -8 22
-145 22 l-140 0 0 40 c0 46 26 129 75 240 18 41 36 83 39 93 4 14 17 17 69 17
35 0 88 -5 118 -10z m-556 -170 c15 -25 -233 -435 -252 -416 -3 3 10 27 29 53
37 52 145 228 172 281 10 18 16 43 14 55 -3 19 -13 12 -78 -54 -170 -173 -320
-431 -476 -823 -24 -60 -42 -111 -41 -113 2 -1 21 23 43 54 21 31 50 63 63 72
l23 15 -27 -52 c-33 -63 -28 -78 7 -25 14 21 62 87 107 147 l81 110 -21 22
c-23 24 -18 44 20 78 28 26 47 16 139 -69 73 -68 91 -106 56 -119 -21 -8 -73
16 -112 53 -18 17 -35 31 -37 31 -2 0 -123 -160 -270 -355 -219 -292 -270
-355 -290 -355 -13 0 -27 -4 -30 -10 -3 -5 -16 -10 -29 -10 -12 0 -27 -5 -32
-10 -6 -6 -35 -12 -65 -13 -30 -2 -64 -9 -77 -16 -13 -7 -59 -14 -102 -15 -90
-3 -90 -4 -90 96 l0 57 48 6 c26 4 63 10 82 14 l35 7 -30 17 -30 16 55 1 55 1
-35 18 c-19 10 -79 33 -132 51 -54 19 -96 35 -94 37 5 5 189 -33 252 -52 55
-16 48 -2 -17 30 -27 14 -49 28 -49 31 0 4 19 4 43 1 37 -4 31 1 -64 47 -58
29 -121 58 -139 64 -18 7 -31 15 -27 18 11 11 171 -47 297 -107 120 -58 124
-59 95 -28 -17 17 -74 67 -129 110 -109 88 -105 97 21 45 86 -34 95 -29 38 24
-15 14 -41 43 -58 65 l-32 40 55 -39 c30 -22 79 -62 108 -90 l54 -51 -15 37
c-9 20 -40 85 -71 145 -30 59 -54 109 -52 111 5 4 142 -182 173 -235 14 -24
27 -43 29 -43 5 0 -33 103 -67 179 -16 35 -27 66 -25 68 4 4 82 -103 104 -142
15 -27 15 -18 -2 41 -38 129 -167 646 -163 650 14 14 111 -290 181 -569 l53
-207 11 137 c16 187 32 196 32 18 0 -76 4 -135 8 -130 5 6 32 69 62 140 73
178 186 402 257 510 155 236 325 399 358 345z m1310 -16 c-30 -24 -118 -62
-161 -70 -59 -10 -30 9 51 34 39 12 80 28 90 37 27 20 45 19 20 -1z m-258 -90
c20 -32 22 -83 3 -118 -33 -62 -117 -9 -107 67 10 74 70 103 104 51z m181 -10
c3 -34 -28 -70 -53 -61 -20 8 -19 56 2 79 24 27 47 19 51 -18z m-99 -104 c0
-14 -11 -65 -23 -115 -13 -49 -23 -91 -21 -93 1 -1 18 9 38 22 l36 25 20 -35
21 -35 -26 -34 c-27 -36 -114 -85 -150 -85 l-22 0 24 59 c28 68 69 224 79 295
5 35 9 45 16 35 5 -8 9 -25 8 -39z m-1679 -6 c0 -8 -90 -218 -97 -224 -3 -3
-2 15 2 40 13 81 62 190 85 190 6 0 10 -3 10 -6z m1069 -169 c17 -68 31 -127
31 -130 0 -3 -57 -4 -127 -3 l-128 3 -22 95 c-12 52 -24 110 -28 128 l-6 32
124 0 125 0 31 -125z m-615 3 c-49 -51 -93 -95 -98 -97 -4 -2 10 23 32 56 45
67 114 133 138 133 10 0 -18 -36 -72 -92z m1396 4 c51 -41 -10 -150 -96 -171
-26 -7 -64 -21 -85 -32 -22 -11 -39 -15 -39 -10 0 14 46 44 113 74 48 22 61
33 77 69 23 51 14 68 -39 69 -29 0 -32 2 -16 9 33 14 61 11 85 -8z m-953 -188
c2 -6 -10 -17 -27 -24 -39 -16 -32 -25 69 -87 42 -26 78 -48 81 -50 13 -11
-33 -23 -90 -23 l-65 0 -33 55 c-35 58 -46 64 -78 40 -25 -19 -58 -19 -74 0
-10 13 -9 15 9 15 11 0 38 15 58 33 21 19 47 39 58 45 24 14 87 11 92 -4z
m-329 -62 c79 -32 98 -45 108 -74 3 -12 24 -38 45 -58 48 -45 49 -72 8 -129
-23 -30 -37 -41 -53 -39 -18 3 -21 9 -18 43 2 22 10 53 18 69 18 37 19 36 -15
36 -16 0 -45 7 -64 15 -59 24 -66 21 -54 -23 14 -52 5 -72 -32 -72 -54 0 -79
62 -41 100 11 11 20 29 20 40 0 17 7 20 38 20 20 -1 55 -9 77 -20 56 -27 63
-25 29 11 -46 49 -70 56 -163 53 -82 -4 -118 6 -105 28 22 35 114 35 202 0z
m1445 -108 c-3 -10 -17 -12 -47 -8 -99 14 -304 -49 -404 -123 -18 -14 -36 -22
-39 -19 -12 12 27 52 73 75 27 13 63 34 79 46 51 37 71 45 150 56 41 5 90 16
108 24 30 13 34 12 59 -12 14 -14 24 -31 21 -39z m-1707 -11 c40 -33 43 -43
11 -43 -27 0 -72 43 -62 59 9 15 12 14 51 -16z m538 -75 c20 -55 13 -76 -36
-106 -41 -25 -105 -43 -125 -35 -11 4 0 11 32 20 52 16 95 40 95 54 0 5 -14 2
-31 -6 -40 -21 -46 -15 -14 15 15 15 25 35 25 52 0 35 19 74 29 62 4 -5 15
-30 25 -56z m193 12 c-4 -16 -14 -41 -23 -55 -16 -25 -120 -82 -131 -72 -10
10 7 57 28 78 14 14 29 19 46 16 20 -4 29 2 45 29 25 42 43 44 35 4z m-699
-13 c17 -13 15 -62 -4 -103 -19 -41 -27 -42 -42 -9 -12 27 -16 117 -6 128 7 6
33 -1 52 -16z m1612 -97 c14 -7 48 -34 76 -60 55 -52 106 -82 171 -99 22 -6
52 -20 65 -31 23 -20 23 -20 4 -35 -12 -9 -41 -15 -71 -15 -43 0 -56 5 -76 26
-13 14 -42 35 -63 46 -36 18 -54 20 -200 16 -137 -4 -170 -8 -219 -27 -31 -12
-55 -27 -52 -32 4 -5 41 -9 83 -9 42 0 106 -6 142 -12 36 -7 95 -11 133 -10
80 3 99 -5 103 -47 2 -17 15 -54 29 -81 14 -28 21 -50 15 -50 -5 0 -44 30 -86
67 -76 66 -76 66 -111 54 -27 -10 -52 -10 -119 -1 -113 16 -138 10 -208 -55
-64 -59 -67 -79 -9 -51 30 14 51 16 112 11 l76 -7 58 -59 c70 -72 75 -100 20
-126 -44 -21 -51 -41 -29 -85 28 -55 25 -59 -57 -73 -49 -8 -44 -24 16 -52 26
-13 47 -27 47 -33 0 -6 -28 -10 -62 -11 -107 -1 -169 -14 -189 -37 -21 -26
-26 -27 -90 -6 -54 18 -57 27 -15 58 22 17 42 21 97 20 38 0 69 3 69 7 0 11
-68 29 -108 29 -33 0 -33 0 -26 38 9 52 28 70 119 113 44 21 94 48 110 59 17
11 45 20 63 20 36 0 39 6 16 38 -17 25 -60 29 -87 10 -9 -7 -25 -29 -35 -47
-18 -33 -86 -80 -98 -68 -3 3 0 15 6 27 21 39 38 120 27 127 -13 8 -39 -28
-32 -45 12 -32 -19 -95 -62 -126 -28 -19 -43 -37 -43 -51 0 -12 -9 -30 -21
-41 -12 -10 -29 -35 -39 -54 l-18 -35 -7 28 c-12 48 2 98 38 136 38 39 63 81
49 81 -5 0 -19 -11 -32 -25 -46 -49 -64 -19 -36 61 7 22 16 61 20 87 10 62 50
108 129 146 l62 30 -45 -6 c-64 -9 -103 -27 -150 -71 -34 -33 -40 -45 -40 -80
0 -33 -7 -49 -40 -87 -44 -51 -51 -75 -20 -75 27 0 25 -22 -5 -50 -34 -32 -31
-59 8 -106 30 -35 72 -122 63 -131 -1 -2 -26 15 -54 38 -47 37 -52 39 -52 19
0 -12 12 -37 26 -56 37 -48 24 -53 -24 -10 -42 38 -72 46 -72 20 0 -24 -57
-10 -91 22 -20 19 -28 22 -32 12 -8 -20 -25 9 -32 57 -3 22 -13 67 -21 101
-16 68 -6 222 16 249 11 13 15 12 37 -5 54 -42 57 -16 8 66 -59 98 -68 170
-29 248 34 66 68 87 57 35 -6 -29 -5 -31 15 -20 30 16 42 14 42 -9 0 -24 13
-26 31 -4 20 24 111 74 137 74 27 0 27 -1 2 -42 -11 -18 -20 -46 -20 -63 0
-16 -6 -42 -14 -57 -13 -24 -12 -26 2 -21 10 3 25 15 34 27 9 11 20 18 24 14
10 -11 -16 -68 -49 -105 -44 -49 -12 -42 80 19 96 64 183 149 183 178 0 18 -4
20 -22 14 -68 -20 -86 -33 -98 -69 -14 -42 -19 -40 -30 9 -12 55 -2 75 51 101
60 31 68 31 41 2 l-22 -23 60 4 c74 5 85 -11 51 -70 -25 -44 -17 -47 42 -17
30 16 71 24 148 30 100 7 149 19 149 37 0 22 -30 32 -99 32 -75 0 -187 14
-226 28 -28 10 98 20 210 17 50 -1 102 -8 115 -15z m-1422 -22 c18 -18 14 -28
-10 -28 -23 -1 -58 -21 -58 -34 0 -11 35 -6 54 9 11 8 30 15 42 15 28 0 74
-20 74 -32 0 -13 -47 -28 -91 -28 -21 0 -39 -5 -39 -11 0 -6 9 -8 20 -4 16 5
20 2 20 -20 0 -53 -39 -40 -131 46 -22 20 -39 44 -39 53 0 35 129 63 158 34z
m523 -22 c-31 -33 -105 -71 -124 -63 -9 3 -23 20 -32 37 -15 29 -15 31 7 40
13 5 56 9 97 9 l74 1 -22 -24z m-966 -81 c-19 -30 -35 -57 -35 -60 0 -3 19 6
41 21 44 28 111 54 138 54 8 0 -7 -15 -34 -34 -48 -32 -146 -126 -133 -126 4
0 39 13 80 29 69 28 207 62 245 60 10 0 -18 -13 -62 -28 -123 -43 -317 -142
-303 -156 2 -2 40 7 83 20 194 60 301 78 465 78 121 0 175 -5 245 -21 99 -24
199 -55 150 -47 -254 39 -499 43 -630 11 -48 -12 -175 -62 -175 -69 0 -1 41 0
91 2 57 2 108 -2 137 -10 l47 -14 -110 -6 c-65 -4 -124 -13 -145 -22 -28 -12
-31 -16 -13 -16 12 -1 34 -6 50 -13 26 -11 24 -12 -40 -19 -38 -4 -71 -10 -75
-13 -3 -3 3 -15 12 -25 15 -16 17 -30 11 -78 -4 -35 -2 -70 5 -87 8 -22 8 -31
-1 -36 -13 -9 -176 -28 -309 -36 -92 -7 -98 -6 -200 31 -128 46 -310 125 -310
134 0 4 38 7 84 7 45 1 89 5 97 9 7 5 29 10 49 12 19 2 42 6 50 9 8 4 40 8 70
10 91 6 100 10 100 49 0 27 17 57 88 152 49 65 106 139 128 164 42 50 120 119
135 119 5 0 -7 -25 -26 -55z m368 -376 c23 -17 35 -19 86 -13 55 6 59 5 66
-15 4 -12 33 -51 66 -85 93 -100 103 -139 69 -264 -11 -39 -20 -89 -20 -111 0
-40 22 -75 44 -68 11 4 11 13 0 110 -4 30 1 76 11 122 10 42 15 91 12 115 -3
22 -1 40 3 40 12 0 50 -50 50 -65 0 -25 31 -38 86 -36 49 1 59 -2 82 -28 15
-16 44 -46 64 -68 42 -45 90 -63 171 -63 63 0 67 -5 67 -81 0 -81 -56 -217
-166 -406 l-18 -31 51 -46 c28 -25 68 -68 89 -96 l38 -50 86 0 c49 0 108 -7
140 -16 141 -42 187 -26 245 84 31 59 45 76 94 106 92 57 131 131 131 254 0
73 24 130 69 163 35 26 48 54 61 133 10 61 37 125 70 165 33 39 33 18 -1 -70
-18 -46 -34 -101 -36 -122 -4 -49 -33 -104 -76 -146 -39 -37 -52 -78 -61 -199
-9 -107 -39 -159 -116 -197 -52 -26 -78 -53 -121 -127 -30 -52 -48 -71 -82
-87 -54 -26 -99 -26 -155 -1 -26 12 -84 24 -142 29 -120 11 -172 33 -231 96
-24 26 -56 53 -71 61 -24 13 -31 12 -62 -7 -47 -27 -66 -19 -109 45 -20 30
-55 69 -79 87 -23 19 -66 58 -95 87 -28 29 -65 57 -81 63 -16 5 -43 27 -60 48
-22 28 -42 41 -69 46 -21 3 -58 15 -82 26 -24 10 -59 19 -78 19 -75 0 -121 37
-142 117 -7 27 -24 50 -52 73 l-42 33 -203 -17 -203 -17 -281 112 c-219 87
-280 115 -280 129 0 15 47 -1 278 -91 l277 -110 140 11 c77 6 172 13 211 16
70 7 72 6 90 -21 10 -15 33 -34 51 -42 19 -7 36 -19 38 -26 2 -7 9 -30 15 -52
17 -65 40 -88 101 -96 30 -4 73 -13 97 -20 l43 -13 33 38 c41 50 61 42 51 -20
-8 -59 5 -78 67 -98 43 -13 58 -24 72 -51 11 -19 44 -58 75 -86 31 -28 75 -69
97 -90 85 -81 159 -54 190 69 8 34 14 77 12 95 -2 27 -7 32 -26 30 -33 -4 -42
30 -42 168 0 110 -1 119 -19 119 -19 0 -26 -10 -42 -63 -6 -23 -3 -37 19 -69
22 -34 26 -51 26 -109 -1 -46 -7 -76 -18 -94 -27 -41 -40 -26 -47 51 -4 53
-12 79 -33 112 -27 40 -28 47 -23 115 l7 72 -39 -98 c-22 -54 -51 -113 -66
-133 -24 -31 -25 -38 -15 -70 16 -47 4 -56 -25 -20 -40 50 -39 76 5 119 21 21
41 50 45 65 4 15 14 35 22 45 9 9 14 18 12 20 -2 1 -13 7 -24 13 -11 6 -25 25
-31 43 -5 17 -13 28 -17 25 -12 -12 -8 -44 10 -81 15 -32 15 -39 2 -62 -8 -14
-33 -35 -57 -45 -23 -11 -44 -28 -48 -38 -7 -25 -20 -23 -40 7 -16 24 -16 48
2 148 5 33 4 37 -14 37 -18 0 -61 -41 -89 -86 -11 -17 -12 -15 -12 15 -1 20
14 64 35 107 40 80 42 117 7 122 -17 3 -21 -1 -17 -11 6 -16 -10 -83 -26 -107
-7 -12 -12 -12 -22 -2 -6 6 -14 12 -18 12 -3 0 -5 -43 -5 -95 0 -105 -1 -105
-62 -80 -19 8 -43 15 -52 15 -10 0 -25 6 -35 13 -17 13 -17 15 2 46 24 40 20
56 -20 77 -27 14 -29 19 -24 47 13 61 12 81 -5 85 -10 2 -25 -11 -39 -33 -16
-26 -28 -35 -44 -33 -19 3 -21 10 -24 77 -4 94 9 125 58 145 35 14 70 48 70
68 0 5 -10 8 -23 8 -29 0 -85 -51 -98 -90 -18 -50 -59 -36 -59 20 0 44 170
150 240 150 22 0 48 -8 63 -21z m1016 -454 c44 -40 66 -44 81 -15 7 14 21 20
45 20 68 0 93 -74 59 -174 -13 -37 -14 -53 -5 -72 15 -34 31 -21 31 25 0 22 6
44 15 51 12 10 20 4 47 -34 40 -58 63 -62 54 -8 -4 20 -9 55 -12 77 l-5 40 17
-30 c9 -16 23 -34 31 -38 59 -35 138 -139 131 -172 -2 -10 -18 4 -45 40 -41
52 -65 66 -77 46 -4 -5 -1 -22 4 -37 7 -16 7 -31 2 -36 -14 -14 -78 17 -97 46
-23 34 -31 33 -51 -9 -19 -41 -32 -44 -64 -10 -21 22 -22 30 -15 82 4 32 8 83
9 113 1 45 -2 55 -17 58 -26 5 -32 -26 -13 -63 31 -56 -5 -95 -89 -95 -78 0
-140 38 -164 103 -13 34 -10 34 28 -2 40 -37 112 -56 148 -39 37 18 40 36 6
43 -75 16 -106 28 -139 57 l-36 32 22 18 c32 26 55 22 99 -17z m-191 -540 c69
-28 134 -32 172 -10 37 21 46 18 60 -16 18 -43 5 -51 -90 -57 -81 -5 -81 -4
-136 33 -30 21 -59 46 -65 57 -12 23 -14 23 59 -7z m422 -83 c0 -25 -67 -72
-102 -72 -38 0 -99 20 -93 31 4 5 21 9 38 10 18 0 57 8 87 19 66 22 70 22 70
12z"/>
<path d="M402 2426 c3 -35 2 -70 -3 -77 -5 -8 -38 -15 -86 -18 -73 -6 -78 -8
-81 -30 l-4 -24 87 6 c118 8 125 15 125 124 0 78 -1 83 -21 83 -21 0 -21 -4
-17 -64z"/>
<path d="M4595 2468 c-26 -23 -44 -77 -45 -134 0 -28 4 -32 36 -37 59 -10 104
19 104 67 0 23 -37 20 -43 -4 -4 -14 -14 -20 -32 -20 -26 0 -27 2 -22 37 8 48
29 67 72 66 54 -2 65 -16 65 -89 0 -35 2 -64 4 -64 2 0 11 -3 20 -6 14 -5 16
5 16 74 0 77 -1 81 -31 106 -41 34 -106 36 -144 4z"/>
<path d="M233 2473 c-7 -2 -13 -13 -13 -24 0 -17 8 -19 60 -19 57 0 60 1 60
25 0 23 -3 25 -47 24 -27 0 -54 -3 -60 -6z"/>
<path d="M4564 2170 c-28 -11 -33 -20 -50 -88 -17 -73 -17 -69 5 -75 16 -4 21
4 30 53 7 34 18 60 27 64 8 3 47 -1 86 -9 58 -13 73 -13 80 -3 17 27 6 35 -64
48 -40 7 -77 14 -83 16 -5 1 -20 -1 -31 -6z"/>
<path d="M398 2158 c-61 -11 -74 -28 -36 -45 32 -14 121 5 114 24 -4 8 -6 19
-6 24 0 5 -3 8 -7 8 -5 -1 -34 -6 -65 -11z"/>
<path d="M440 1943 c-77 -105 -76 -104 -95 -35 -14 50 -20 59 -36 55 -21 -6
-22 -1 14 -115 11 -38 25 -68 29 -68 5 0 20 12 33 26 22 24 27 25 56 15 23 -8
43 -8 71 0 32 8 39 14 36 32 -2 13 -9 21 -18 18 -44 -10 -90 -12 -90 -4 0 5
16 31 36 56 30 38 34 51 27 71 -8 23 -11 21 -63 -51z"/>
<path d="M4457 1889 c-3 -11 0 -22 6 -25 169 -62 206 -67 207 -29 0 9 -179 75
-202 75 -3 0 -8 -9 -11 -21z"/>
<path d="M593 1753 c-18 -9 -33 -20 -33 -25 0 -5 12 -31 26 -59 14 -28 24 -53
22 -54 -2 -2 -45 -7 -95 -11 -91 -7 -91 -7 -81 -30 8 -17 17 -22 37 -19 14 2
61 6 104 9 43 3 83 8 87 11 5 3 -4 33 -20 68 l-28 62 25 13 c15 9 22 19 19 29
-3 8 -6 17 -6 19 0 8 -26 2 -57 -13z"/>
<path d="M4389 1734 c-1 -7 -2 -19 -3 -25 -1 -14 107 -60 117 -49 16 14 -17
49 -65 69 -40 16 -48 17 -49 5z"/>
<path d="M4277 1518 c-44 -75 -52 -108 -28 -108 6 0 26 29 46 65 20 36 38 65
40 65 2 0 30 -34 63 -75 57 -71 60 -73 70 -51 9 21 3 32 -56 105 -36 44 -70
81 -76 81 -6 0 -33 -37 -59 -82z"/>
<path d="M675 1454 c-98 -66 -116 -110 -72 -175 34 -51 66 -65 113 -51 56 16
104 64 104 101 0 37 -39 85 -59 72 -11 -7 -10 -13 3 -33 9 -14 14 -32 10 -41
-9 -23 -67 -57 -97 -57 -27 0 -57 32 -57 61 0 18 50 66 99 95 35 21 36 24 19
46 -12 15 -18 13 -63 -18z"/>
<path d="M4311 1401 c-9 -17 0 -25 79 -70 49 -28 94 -51 99 -51 7 0 21 23 21
35 0 3 -178 105 -185 105 -2 0 -9 -9 -14 -19z"/>
<path d="M4133 1275 c-29 -29 -33 -38 -23 -50 17 -20 27 -19 35 4 10 31 35 33
76 6 42 -28 57 -62 40 -94 -25 -45 -70 -38 -147 25 -40 32 -42 33 -58 15 -16
-17 -14 -20 37 -60 73 -56 107 -67 145 -47 65 33 92 115 54 163 -22 27 -90 73
-109 73 -8 0 -31 -16 -50 -35z"/>
<path d="M896 1211 c-4 -5 -1 -22 6 -36 12 -26 10 -29 -32 -66 -25 -21 -49
-39 -53 -39 -5 0 -17 10 -27 23 -17 20 -20 20 -34 7 -13 -13 -11 -19 24 -56
l38 -41 64 54 c78 68 90 93 62 130 -23 30 -39 39 -48 24z"/>
<path d="M3931 1061 c-17 -11 -5 -34 42 -80 61 -58 73 -7 14 57 -34 35 -36 36
-56 23z"/>
<path d="M1046 1051 c-4 -5 -3 -16 0 -24 3 -10 -3 -20 -16 -27 -30 -16 -60
-70 -60 -108 0 -25 9 -43 34 -68 50 -50 104 -50 156 2 28 28 35 41 35 75 0 38
-6 47 -63 100 -63 59 -76 67 -86 50z m104 -143 c0 -36 -40 -78 -75 -78 -25 0
-65 31 -65 50 0 21 30 69 56 89 l27 22 29 -28 c18 -17 28 -37 28 -55z"/>
<path d="M3728 887 c-32 -23 -57 -45 -58 -48 0 -5 110 -152 126 -168 6 -6 154
111 154 121 0 6 -23 39 -51 74 -64 80 -87 83 -171 21z m126 -41 c20 -23 36
-48 36 -53 0 -11 -78 -69 -83 -62 -2 2 -20 27 -41 54 l-38 50 33 28 c18 15 39
27 45 27 7 0 29 -20 48 -44z"/>
<path d="M1277 785 c-38 -56 -36 -73 5 -55 22 11 68 70 68 89 0 7 -23 21 -34
21 -2 0 -19 -25 -39 -55z"/>
<path d="M1454 710 c5 -34 4 -40 -12 -40 -22 0 -53 -32 -76 -77 -15 -30 -15
-33 3 -42 21 -12 28 -6 55 47 27 52 43 41 50 -37 6 -60 10 -70 32 -79 24 -12
24 -11 18 27 -6 36 -4 40 22 52 38 18 83 97 63 110 -22 14 -27 11 -44 -20 -8
-16 -23 -37 -32 -47 -17 -17 -18 -16 -24 12 -4 16 -7 46 -8 66 -1 36 -22 68
-43 68 -7 0 -8 -15 -4 -40z"/>
<path d="M3323 647 c-33 -17 -40 -25 -33 -37 8 -13 14 -13 42 -1 71 28 75 27
102 -28 14 -28 26 -54 26 -59 0 -5 -22 -19 -50 -32 -52 -24 -55 -27 -42 -47 6
-9 30 -2 92 27 47 22 85 44 84 50 -2 25 -5 28 -21 24 -14 -3 -26 12 -48 59
-29 60 -31 62 -70 64 -26 2 -55 -5 -82 -20z"/>
<path d="M1717 517 c-37 -100 -37 -117 -2 -117 8 0 68 146 77 188 2 8 -6 17
-17 22 -18 7 -24 -2 -58 -93z"/>
<path d="M3094 570 c-12 -5 -29 -19 -38 -31 -12 -18 -18 -21 -28 -11 -14 14
-48 16 -48 3 0 -5 9 -28 19 -52 11 -24 22 -69 26 -100 7 -53 8 -56 32 -51 22
4 24 8 19 35 -18 90 -18 133 -1 151 38 37 79 2 92 -78 5 -30 2 -34 -21 -40
-24 -6 -34 -25 -20 -39 6 -5 91 17 101 27 3 2 -5 39 -18 81 -15 51 -30 82 -47
96 -27 21 -36 22 -68 9z"/>
<path d="M2050 500 c0 -12 7 -20 16 -20 13 0 15 -8 9 -52 -9 -65 -21 -89 -40
-82 -10 4 -15 0 -15 -14 0 -25 32 -37 59 -22 20 10 32 44 46 123 6 39 16 44
61 27 29 -11 29 -10 8 -137 -6 -41 -5 -43 18 -43 23 0 25 5 38 87 l13 87 -26
22 c-15 13 -51 26 -90 33 -88 15 -97 14 -97 -9z"/>
<path d="M2750 493 c-87 -13 -90 -14 -90 -33 0 -13 7 -20 19 -20 16 0 20 -10
26 -62 6 -51 5 -64 -9 -73 -28 -21 -20 -42 14 -37 41 6 51 28 48 114 l-3 73
32 3 c40 4 49 -11 58 -100 7 -64 9 -68 32 -68 25 0 25 1 18 58 -17 146 -34
163 -145 145z"/>
<path d="M2380 461 c0 -18 6 -21 43 -21 60 0 87 -22 87 -70 0 -54 -20 -70 -86
-70 -47 0 -54 -2 -54 -20 0 -18 7 -20 55 -20 95 0 135 33 135 109 0 31 -7 49
-29 73 -24 27 -36 32 -90 36 -57 4 -61 3 -61 -17z"/>
</g>
</svg>
